{
    "asset" : {
        "generator" : "Khronos glTF Blender I/O v3.3.27",
        "version" : "2.0"
    },
    "scene" : 0,
    "scenes" : [
        {
            "name" : "Scene",
            "nodes" : [
                0,
                1,
                2
            ]
        }
    ],
    "nodes" : [
        {
            "mesh" : 0,
            "name" : "CZmeshMerge",
            "rotation" : [
                0,
                -0.008726535364985466,
                0,
                0.9999619126319885
            ],
            "scale" : [
                0.009999999776482582,
                0.009999999776482582,
                0.009999999776482582
            ]
        },
        {
            "mesh" : 1,
            "name" : "NDmeshMerge",
            "rotation" : [
                0,
                -0.008726535364985466,
                0,
                0.9999619126319885
            ]
        },
        {
            "mesh" : 2,
            "name" : "FRmeshMerge",
            "rotation" : [
                0,
                -0.008726535364985466,
                0,
                0.9999619126319885
            ],
            "scale" : [
                0.009999999776482582,
                0.009999999776482582,
                0.009999999776482582
            ]
        }
    ],
    "animations" : [
        {
            "channels" : [
                {
                    "sampler" : 0,
                    "target" : {
                        "node" : 0,
                        "path" : "translation"
                    }
                },
                {
                    "sampler" : 1,
                    "target" : {
                        "node" : 0,
                        "path" : "rotation"
                    }
                },
                {
                    "sampler" : 2,
                    "target" : {
                        "node" : 0,
                        "path" : "scale"
                    }
                }
            ],
            "name" : "Action",
            "samplers" : [
                {
                    "input" : 12,
                    "interpolation" : "LINEAR",
                    "output" : 13
                },
                {
                    "input" : 12,
                    "interpolation" : "LINEAR",
                    "output" : 14
                },
                {
                    "input" : 12,
                    "interpolation" : "LINEAR",
                    "output" : 15
                }
            ]
        },
        {
            "channels" : [
                {
                    "sampler" : 0,
                    "target" : {
                        "node" : 1,
                        "path" : "translation"
                    }
                },
                {
                    "sampler" : 1,
                    "target" : {
                        "node" : 1,
                        "path" : "rotation"
                    }
                },
                {
                    "sampler" : 2,
                    "target" : {
                        "node" : 1,
                        "path" : "scale"
                    }
                }
            ],
            "name" : "Action.001",
            "samplers" : [
                {
                    "input" : 12,
                    "interpolation" : "LINEAR",
                    "output" : 16
                },
                {
                    "input" : 12,
                    "interpolation" : "LINEAR",
                    "output" : 17
                },
                {
                    "input" : 12,
                    "interpolation" : "LINEAR",
                    "output" : 18
                }
            ]
        },
        {
            "channels" : [
                {
                    "sampler" : 0,
                    "target" : {
                        "node" : 2,
                        "path" : "translation"
                    }
                },
                {
                    "sampler" : 1,
                    "target" : {
                        "node" : 2,
                        "path" : "rotation"
                    }
                },
                {
                    "sampler" : 2,
                    "target" : {
                        "node" : 2,
                        "path" : "scale"
                    }
                }
            ],
            "name" : "Action.002",
            "samplers" : [
                {
                    "input" : 12,
                    "interpolation" : "LINEAR",
                    "output" : 19
                },
                {
                    "input" : 12,
                    "interpolation" : "LINEAR",
                    "output" : 20
                },
                {
                    "input" : 12,
                    "interpolation" : "LINEAR",
                    "output" : 21
                }
            ]
        }
    ],
    "materials" : [
        {
            "name" : "CZ",
            "occlusionTexture" : {
                "index" : 0
            },
            "pbrMetallicRoughness" : {
                "baseColorFactor" : [
                    0.8600000143051147,
                    0.8600000143051147,
                    0.8600000143051147,
                    1
                ],
                "roughnessFactor" : 0.65
            }
        },
        {
            "name" : "ND",
            "occlusionTexture" : {
                "index" : 1
            },
            "pbrMetallicRoughness" : {
                "baseColorFactor" : [
                    0.0,
                    0.0,
                    0.0,
                    1
                ],
                "roughnessFactor" : 1.0
            }
        },
        {
            "name" : "FR",
            "occlusionTexture" : {
                "index" : 2
            },
            "pbrMetallicRoughness" : {
                "baseColorFactor" : [
                    0.8600000143051147,
                    0.8600000143051147,
                    0.8600000143051147,
                    1
                ],
                "roughnessFactor" : 0.65
            }
        }
    ],
    "meshes" : [
        {
            "name" : "Text.009",
            "primitives" : [
                {
                    "attributes" : {
                        "POSITION" : 0,
                        "NORMAL" : 1,
                        "TEXCOORD_0" : 2
                    },
                    "indices" : 3,
                    "material" : 0
                }
            ]
        },
        {
            "name" : "Text.010",
            "primitives" : [
                {
                    "attributes" : {
                        "POSITION" : 4,
                        "NORMAL" : 5,
                        "TEXCOORD_0" : 6
                    },
                    "indices" : 7,
                    "material" : 1
                }
            ]
        },
        {
            "name" : "Text.011",
            "primitives" : [
                {
                    "attributes" : {
                        "POSITION" : 8,
                        "NORMAL" : 9,
                        "TEXCOORD_0" : 10
                    },
                    "indices" : 11,
                    "material" : 2
                }
            ]
        }
    ],
    "textures" : [
        {
            "sampler" : 0,
            "source" : 0
        },
        {
            "sampler" : 0,
            "source" : 1
        },
        {
            "sampler" : 0,
            "source" : 2
        }
    ],
    "images" : [
        {
            "mimeType" : "image/png",
            "name" : "AO_CZ_sm",
            "uri" : "textures/AO_CZ_sm.png"
        },
        {
            "mimeType" : "image/png",
            "name" : "AO_ND_sm",
            "uri" : "textures/AO_ND_sm.png"
        },
        {
            "mimeType" : "image/png",
            "name" : "AO_FR_sm",
            "uri" : "textures/AO_FR_sm.png"
        }
    ],
    "accessors" : [
        {
            "bufferView" : 0,
            "componentType" : 5126,
            "count" : 3518,
            "max" : [
                3.99994158744812,
                4.482421398162842,
                4
            ],
            "min" : [
                -3.210462651281887e-08,
                3.920682907104492,
                -2.874317169189453
            ],
            "type" : "VEC3"
        },
        {
            "bufferView" : 1,
            "componentType" : 5126,
            "count" : 3518,
            "type" : "VEC3"
        },
        {
            "bufferView" : 2,
            "componentType" : 5126,
            "count" : 3518,
            "type" : "VEC2"
        },
        {
            "bufferView" : 3,
            "componentType" : 5123,
            "count" : 8940,
            "type" : "SCALAR"
        },
        {
            "bufferView" : 4,
            "componentType" : 5126,
            "count" : 5056,
            "max" : [
                3.9999747276306152,
                4.376484394073486,
                3.998504161834717
            ],
            "min" : [
                -1.984868049621582,
                3.920682668685913,
                -3.9986536502838135
            ],
            "type" : "VEC3"
        },
        {
            "bufferView" : 5,
            "componentType" : 5126,
            "count" : 5056,
            "type" : "VEC3"
        },
        {
            "bufferView" : 6,
            "componentType" : 5126,
            "count" : 5056,
            "type" : "VEC2"
        },
        {
            "bufferView" : 7,
            "componentType" : 5123,
            "count" : 12744,
            "type" : "SCALAR"
        },
        {
            "bufferView" : 8,
            "componentType" : 5126,
            "count" : 6374,
            "max" : [
                3.9988832473754883,
                4.488941192626953,
                3.9998722076416016
            ],
            "min" : [
                -3.5165936946868896,
                3.9206831455230713,
                -3.9970734119415283
            ],
            "type" : "VEC3"
        },
        {
            "bufferView" : 9,
            "componentType" : 5126,
            "count" : 6374,
            "type" : "VEC3"
        },
        {
            "bufferView" : 10,
            "componentType" : 5126,
            "count" : 6374,
            "type" : "VEC2"
        },
        {
            "bufferView" : 11,
            "componentType" : 5123,
            "count" : 15318,
            "type" : "SCALAR"
        },
        {
            "bufferView" : 12,
            "componentType" : 5126,
            "count" : 1440,
            "max" : [
                60
            ],
            "min" : [
                0.041666666666666664
            ],
            "type" : "SCALAR"
        },
        {
            "bufferView" : 13,
            "componentType" : 5126,
            "count" : 1440,
            "type" : "VEC3"
        },
        {
            "bufferView" : 14,
            "componentType" : 5126,
            "count" : 1440,
            "type" : "VEC4"
        },
        {
            "bufferView" : 15,
            "componentType" : 5126,
            "count" : 1440,
            "type" : "VEC3"
        },
        {
            "bufferView" : 16,
            "componentType" : 5126,
            "count" : 1440,
            "type" : "VEC3"
        },
        {
            "bufferView" : 17,
            "componentType" : 5126,
            "count" : 1440,
            "type" : "VEC4"
        },
        {
            "bufferView" : 18,
            "componentType" : 5126,
            "count" : 1440,
            "type" : "VEC3"
        },
        {
            "bufferView" : 19,
            "componentType" : 5126,
            "count" : 1440,
            "type" : "VEC3"
        },
        {
            "bufferView" : 20,
            "componentType" : 5126,
            "count" : 1440,
            "type" : "VEC4"
        },
        {
            "bufferView" : 21,
            "componentType" : 5126,
            "count" : 1440,
            "type" : "VEC3"
        }
    ],
    "bufferViews" : [
        {
            "buffer" : 0,
            "byteLength" : 42216,
            "byteOffset" : 0,
            "target" : 34962
        },
        {
            "buffer" : 0,
            "byteLength" : 42216,
            "byteOffset" : 42216,
            "target" : 34962
        },
        {
            "buffer" : 0,
            "byteLength" : 28144,
            "byteOffset" : 84432,
            "target" : 34962
        },
        {
            "buffer" : 0,
            "byteLength" : 17880,
            "byteOffset" : 112576,
            "target" : 34963
        },
        {
            "buffer" : 0,
            "byteLength" : 60672,
            "byteOffset" : 130456,
            "target" : 34962
        },
        {
            "buffer" : 0,
            "byteLength" : 60672,
            "byteOffset" : 191128,
            "target" : 34962
        },
        {
            "buffer" : 0,
            "byteLength" : 40448,
            "byteOffset" : 251800,
            "target" : 34962
        },
        {
            "buffer" : 0,
            "byteLength" : 25488,
            "byteOffset" : 292248,
            "target" : 34963
        },
        {
            "buffer" : 0,
            "byteLength" : 76488,
            "byteOffset" : 317736,
            "target" : 34962
        },
        {
            "buffer" : 0,
            "byteLength" : 76488,
            "byteOffset" : 394224,
            "target" : 34962
        },
        {
            "buffer" : 0,
            "byteLength" : 50992,
            "byteOffset" : 470712,
            "target" : 34962
        },
        {
            "buffer" : 0,
            "byteLength" : 30636,
            "byteOffset" : 521704,
            "target" : 34963
        },
        {
            "buffer" : 0,
            "byteLength" : 5760,
            "byteOffset" : 552340
        },
        {
            "buffer" : 0,
            "byteLength" : 17280,
            "byteOffset" : 558100
        },
        {
            "buffer" : 0,
            "byteLength" : 23040,
            "byteOffset" : 575380
        },
        {
            "buffer" : 0,
            "byteLength" : 17280,
            "byteOffset" : 598420
        },
        {
            "buffer" : 0,
            "byteLength" : 17280,
            "byteOffset" : 615700
        },
        {
            "buffer" : 0,
            "byteLength" : 23040,
            "byteOffset" : 632980
        },
        {
            "buffer" : 0,
            "byteLength" : 17280,
            "byteOffset" : 656020
        },
        {
            "buffer" : 0,
            "byteLength" : 17280,
            "byteOffset" : 673300
        },
        {
            "buffer" : 0,
            "byteLength" : 23040,
            "byteOffset" : 690580
        },
        {
            "buffer" : 0,
            "byteLength" : 17280,
            "byteOffset" : 713620
        }
    ],
    "samplers" : [
        {
            "magFilter" : 9729,
            "minFilter" : 9987
        }
    ],
    "buffers" : [
        {
            "byteLength" : 730900,
            "uri" : "Text-circle-anim.bin"
        }
    ]
}
