{
    "asset" : {
        "generator" : "Khronos glTF Blender I/O v1.8.19",
        "version" : "2.0"
    },
    "scene" : 0,
    "scenes" : [
        {
            "name" : "Scene",
            "nodes" : [
                0
            ]
        }
    ],
    "nodes" : [
        {
            "mesh" : 0,
            "name" : "Text.002",
            "rotation" : [
                0.7071068286895752,
                0,
                0,
                0.7071068286895752
            ]
        }
    ],
    "materials" : [
        {
            "doubleSided" : true,
            "name" : "Material.001",
            "pbrMetallicRoughness" : {
                "baseColorFactor" : [
                    0.8000000715255737,
                    0.0020759636536240578,
                    0.037293579429388046,
                    1
                ],
                "roughnessFactor" : 0
            }
        }
    ],
    "meshes" : [
        {
            "name" : "Text.002",
            "primitives" : [
                {
                    "attributes" : {
                        "POSITION" : 0,
                        "NORMAL" : 1,
                        "TEXCOORD_0" : 2
                    },
                    "indices" : 3,
                    "material" : 0
                }
            ]
        }
    ],
    "accessors" : [
        {
            "bufferView" : 0,
            "componentType" : 5126,
            "count" : 12146,
            "max" : [
                13.613590240478516,
                2.7014461778662735e-09,
                0.1133100613951683
            ],
            "min" : [
                0.05820721760392189,
                -0.11416580528020859,
                -0.6889538168907166
            ],
            "type" : "VEC3"
        },
        {
            "bufferView" : 1,
            "componentType" : 5126,
            "count" : 12146,
            "type" : "VEC3"
        },
        {
            "bufferView" : 2,
            "componentType" : 5126,
            "count" : 12146,
            "type" : "VEC2"
        },
        {
            "bufferView" : 3,
            "componentType" : 5123,
            "count" : 58620,
            "type" : "SCALAR"
        }
    ],
    "bufferViews" : [
        {
            "buffer" : 0,
            "byteLength" : 145752,
            "byteOffset" : 0
        },
        {
            "buffer" : 0,
            "byteLength" : 145752,
            "byteOffset" : 145752
        },
        {
            "buffer" : 0,
            "byteLength" : 97168,
            "byteOffset" : 291504
        },
        {
            "buffer" : 0,
            "byteLength" : 117240,
            "byteOffset" : 388672
        }
    ],
    "buffers" : [
        {
            "byteLength" : 505912,
            "uri" : "SculptureText.bin"
        }
    ]
}
